<?xml version="1.0" encoding="UTF-8" standalone="no"?>
<!-- Generator: Adobe Illustrator 16.0.0, SVG Export Plug-In . SVG Version: 6.00 Build 0)  -->

<svg
   version="1.1"
   id="Layer_1"
   x="0px"
   y="0px"
   width="250"
   height="100.61825"
   viewBox="-215.19 -86.608 250 100.61825"
   enable-background="new -215.19 -86.608 1000 402.473"
   xml:space="preserve"
   sodipodi:docname="Marvel_Logo.svg"
   inkscape:version="1.2.1 (9c6d41e, 2022-07-14)"
   xmlns:inkscape="http://www.inkscape.org/namespaces/inkscape"
   xmlns:sodipodi="http://sodipodi.sourceforge.net/DTD/sodipodi-0.dtd"
   xmlns="http://www.w3.org/2000/svg"
   xmlns:svg="http://www.w3.org/2000/svg"><defs
   id="defs13" /><sodipodi:namedview
   id="namedview11"
   pagecolor="#ffffff"
   bordercolor="#000000"
   borderopacity="0.25"
   inkscape:showpageshadow="2"
   inkscape:pageopacity="0.0"
   inkscape:pagecheckerboard="0"
   inkscape:deskcolor="#d1d1d1"
   showgrid="false"
   inkscape:zoom="0.58637475"
   inkscape:cx="499.68045"
   inkscape:cy="201.2365"
   inkscape:window-width="1423"
   inkscape:window-height="430"
   inkscape:window-x="0"
   inkscape:window-y="25"
   inkscape:window-maximized="0"
   inkscape:current-layer="Layer_1" />
<g
   id="g8"
   transform="matrix(0.25,0,0,0.25,-161.3925,-64.956)">
	<rect
   x="-215.19"
   y="-86.608002"
   fill="#ed1d24"
   width="1000"
   height="402.47299"
   id="rect2" />
	<g
   id="g6">
		<path
   fill="#ffffff"
   d="M 631.063,7.184 V -54.419 H 459.644 L 431.453,151.384 403.557,-54.418 H 341.74 l 6.925,54.915 c -7.14,-14.068 -32.449,-54.915 -88.146,-54.915 -0.367,-0.024 -61.901,0 -61.901,0 L 198.381,245.556 153.324,-54.418 72.365,-54.465 25.753,256.349 25.777,-54.42 h -77.483 l -27.933,174.585 -27.208,-174.583 h -77.508 v 337.906 h 61.036 v -162.87 l 27.764,162.866 h 32.449 L -35.732,120.618 V 283.484 H 81.935 l 7.14,-51.995 h 47.374 l 7.116,51.995 115.521,0.071 h 0.094 v -0.071 h 0.072 0.072 V 173.799 l 14.162,-2.063 29.319,111.819 h 0.072 59.61 0.07 l -0.024,-0.071 h 0.106 0.072 L 324.236,152.427 C 343.734,138.005 365.749,101.38 359.89,66.343 V 66.32 c 0.07,0.474 36.316,217.38 36.316,217.38 L 467.271,283.484 515.83,-22.8 v 306.285 h 115.236 v -60.773 h -54.7 v -77.496 h 54.7 V 83.518 h -54.7 V 7.184 Z M 96.265,177.905 113.023,33.444 l 17.4,144.461 z m 177.419,-66.704 c -4.697,2.278 -9.595,3.417 -14.363,3.417 V 5.927 c 0.083,0 0.179,-0.022 0.297,-0.022 4.78,-0.024 40.419,1.446 40.419,53.774 0,27.373 -12.121,44.62 -26.353,51.522 m 480.36,111.464 v 60.772 H 641.63 V -54.465 h 60.526 v 277.13 z"
   id="path4" />
	</g>
</g>
</svg>
